HIERARCHY
ROOT Hips
{
  OFFSET 0.0 0.0 0.0
  CHANNELS 6 XPOSITION YPOSITION ZPOSITION ZROTATION XROTATION YROTATION 
  JOINT RightUpLeg
  {
    OFFSET -0.089458038 -0.086670642 0.001016508
    CHANNELS 3 ZROTATION XROTATION YROTATION 
    JOINT RightLeg
    {
      OFFSET 1.524e-006 -0.44256706 0.04075049
      CHANNELS 3 ZROTATION XROTATION YROTATION 
      JOINT RightFoot
      {
        OFFSET 0.001562862 -0.419119812 -0.041630854
        CHANNELS 3 ZROTATION XROTATION YROTATION 
        End Site
        {
          OFFSET 7.5692e-005 -0.04415155 0.084991702
        }
      }
    }
  }
  JOINT Spine
  {
    OFFSET 0.0 0.11890502 0.0
    CHANNELS 3 ZROTATION XROTATION YROTATION 
    JOINT Spine1
    {
      OFFSET 0.0 0.256575052 0.001270508
      CHANNELS 3 ZROTATION XROTATION YROTATION 
      End Site
      {
        OFFSET -0.002899918 0.215084406 0.0252476
      }
      JOINT RightArm
      {
        OFFSET -0.16272758 -0.05365633 0.001021842
        CHANNELS 3 ZROTATION XROTATION YROTATION 
        JOINT RightForeArm
        {
          OFFSET -0.263648698 -0.000263906 -0.014099794
          CHANNELS 3 ZROTATION XROTATION YROTATION 
          End Site
          {
            OFFSET -0.220319092 0.001914652 0.010174732
          }
        }
      }
      JOINT LeftArm
      {
        OFFSET 0.16272758 -0.05365633 0.001020826
        CHANNELS 3 ZROTATION XROTATION YROTATION 
        JOINT LeftForeArm
        {
          OFFSET 0.26260552 -0.000263144 -0.01410081
          CHANNELS 3 ZROTATION XROTATION YROTATION 
          End Site
          {
            OFFSET 0.220897958 0.001915922 0.01017524
          }
        }
      }
    }
  }
  JOINT LeftUpLeg
  {
    OFFSET 0.089458038 -0.086670642 0.001016508
    CHANNELS 3 ZROTATION XROTATION YROTATION 
    JOINT LeftLeg
    {
      OFFSET -3.048e-006 -0.442569346 0.040725598
      CHANNELS 3 ZROTATION XROTATION YROTATION 
      JOINT LeftFoot
      {
        OFFSET -0.002532888 -0.41911778 -0.041605708
        CHANNELS 3 ZROTATION XROTATION YROTATION 
        End Site
        {
          OFFSET -0.00040005 -0.044151042 0.084991194
        }
      }
    }
  }
}
MOTION
Frames: 6
Frame Time: 0.033333
-0.1124585 0.990231648383 2.17413332 1.12282803115 -1.07621284384 177.809016927 -0.101009393129 -2.59786223737 -1.8395912843 -1.20833762397 4.04304296739 -5.2932104841 -0.220616350831 -29.1663147749 0.00263396361077 3.10718240015 1.58619724251 -0.107741284938 0.460808263948 -6.91300137172 -0.307334313504 73.9598838048 -12.1751144314 -3.54570338331 8.10954336571 14.6186794938 8.06887044298 -77.957559375 -12.8456230032 -11.3251930119 -16.3377493154 37.4589772198 6.77175476723 3.66081106728 -2.53150396138 2.59533464049 0.416778703443 4.25546910765 2.46630361589 -0.644709506525 -29.7584990062 0.0696904144635 
-0.11291062 0.990345948383 2.17426286 1.12079743725 -1.00619721499 177.711850656 -0.123451306998 -2.49970003928 -1.84855953613 -1.21341789733 3.95696550838 -5.1735664873 -0.202098960939 -29.1053177705 0.00103006987923 2.98153658805 1.64339783565 -0.0919378146838 0.674512823525 -6.9242985046 -0.311774016506 74.0671724163 -11.4578446771 -3.15351648248 8.05047588977 13.8656519916 8.61290098678 -78.0961848944 -12.841617951 -12.027595152 -16.2968706332 37.5201996205 6.77644796096 3.68829873671 -2.39634348233 2.69816121746 0.298568726199 4.15653552507 2.47401127092 -0.572693966268 -29.7274011549 0.0641413593405 
-0.1138047 0.990439928383 2.17441018 1.11304538599 -0.927182064852 177.594084534 -0.152320555609 -2.4086824325 -1.82251068874 -1.28101414511 3.89511088836 -5.0595172692 -0.136399558076 -29.0492180118 -0.00411803711046 2.82195263319 1.628596709 -0.114446236186 0.905431434161 -6.88786670246 -0.358285870526 74.2019525392 -10.0662892563 -2.42964727127 8.02684087392 12.5347392591 9.42399875733 -78.135560935 -12.5098363894 -12.9942052308 -16.3467907783 37.1864048606 6.75379307726 3.68968697266 -2.2878672717 2.80053422717 0.165839514348 4.14157271504 2.49852866184 -0.491155594843 -29.7462046656 0.0579338446329 
-0.114808 0.990396748383 2.17446606 1.11420854586 -0.927103090789 177.48056679 -0.160619408873 -2.43325980102 -1.75468264141 -1.38238738588 3.90225099737 -4.99821717517 -0.0532615316682 -29.030414501 -0.0106363245915 2.8126413778 1.47979506152 -0.148749607312 0.888649179123 -6.78144040236 -0.395063984607 74.3240558309 -8.92589184418 -1.7417451959 8.00142659379 11.5848759503 10.0013751384 -78.0473490419 -12.0648743244 -13.6981356258 -16.4423451248 36.7194828837 6.72232981085 3.64486897887 -2.35728504556 2.80027147833 0.150076331538 4.32093732462 2.60791776993 -0.46958121505 -29.8625057117 0.0562715873643 
-0.11570716 0.990307848383 2.17430858 1.141963233 -0.986879839188 177.271098549 -0.148836385399 -2.51180398826 -1.69342747722 -1.43181554392 3.89258499903 -4.84490333397 -0.0025428593343 -29.0108152732 -0.0145221160936 2.9152513097 1.30389784015 -0.103326754918 0.776546244771 -6.69528055419 -0.343542907202 74.4198765548 -8.67416009968 -1.26136945384 7.89374780775 11.642352846 10.1671293154 -78.0642810808 -11.8268089347 -14.0422234807 -16.4833450429 36.480941942 6.70659262811 3.6125848091 -2.46971316095 2.77067562833 0.196946730469 4.51208187609 2.83810304237 -0.478806986349 -30.0123054206 0.0571647680004 
-0.11650472 0.990302768383 2.1737828 1.18634067958 -1.04256829248 176.998696944 -0.143214792867 -2.53721848183 -1.67374127121 -1.41653523681 3.8228457794 -4.58833111978 0.0191800633162 -28.9795159313 -0.0163467254246 3.02368739297 1.16459997401 -0.00430088849493 0.725145069203 -6.68423955339 -0.244461675142 74.4380585184 -9.06702489677 -0.905294510213 7.8427442239 12.4322684923 9.90215041904 -78.2277070171 -11.7843149128 -14.0568878968 -16.4822078164 36.3912376525 6.70092741308 3.62243863764 -2.44638785149 2.79595031646 0.199084392916 4.51230641856 3.07835067756 -0.468096342596 -30.1134058807 0.05641396746 
